<svg width="16" height="17" viewBox="0 0 16 17" fill="none" xmlns="http://www.w3.org/2000/svg">
<g clip-path="url(#clip0_2909_4765)">
<path d="M12.0533 8.78001L7.93328 12.9067C7.39315 13.3867 6.69004 13.6422 5.96776 13.6209C5.24548 13.5997 4.55861 13.3032 4.04766 12.7923C3.53671 12.2813 3.24028 11.5945 3.21902 10.8722C3.19776 10.1499 3.45327 9.4468 3.93328 8.90668L9.26661 3.57334C9.58503 3.27088 10.0074 3.10223 10.4466 3.10223C10.8858 3.10223 11.3082 3.27088 11.6266 3.57334C11.9368 3.88774 12.1108 4.31166 12.1108 4.75334C12.1108 5.19503 11.9368 5.61895 11.6266 5.93334L7.02661 10.5267C6.98109 10.5757 6.92635 10.6153 6.86553 10.6432C6.80471 10.671 6.73899 10.6866 6.67213 10.6891C6.60528 10.6916 6.53858 10.6809 6.47587 10.6576C6.41315 10.6343 6.35564 10.5989 6.30661 10.5533C6.25758 10.5078 6.218 10.4531 6.19013 10.3923C6.16226 10.3314 6.14664 10.2657 6.14416 10.1989C6.14168 10.132 6.1524 10.0653 6.1757 10.0026C6.199 9.93988 6.23442 9.88237 6.27994 9.83334L9.69994 6.42001C9.82548 6.29447 9.89601 6.12421 9.89601 5.94668C9.89601 5.76914 9.82548 5.59888 9.69994 5.47334C9.57441 5.34781 9.40415 5.27728 9.22661 5.27728C9.04908 5.27728 8.87881 5.34781 8.75328 5.47334L5.33328 8.90001C5.16215 9.06981 5.02632 9.27181 4.93363 9.49436C4.84094 9.7169 4.79322 9.9556 4.79322 10.1967C4.79322 10.4378 4.84094 10.6764 4.93363 10.899C5.02632 11.1215 5.16215 11.3235 5.33328 11.4933C5.68286 11.8263 6.14715 12.0121 6.62994 12.0121C7.11274 12.0121 7.57703 11.8263 7.92661 11.4933L12.5199 6.89334C13.0499 6.32464 13.3384 5.57246 13.3246 4.79525C13.3109 4.01805 12.9961 3.27651 12.4464 2.72686C11.8968 2.1772 11.1552 1.86236 10.378 1.84864C9.60083 1.83493 8.84864 2.12342 8.27994 2.65334L2.94661 7.98668C2.22741 8.78323 1.8433 9.82658 1.8743 10.8993C1.9053 11.9721 2.34903 12.9915 3.11304 13.7452C3.87704 14.4989 4.9024 14.9287 5.97547 14.9451C7.04854 14.9616 8.08657 14.5633 8.87328 13.8333L12.9999 9.71334C13.0621 9.65118 13.1114 9.57739 13.1451 9.49618C13.1787 9.41496 13.196 9.32792 13.196 9.24001C13.196 9.1521 13.1787 9.06506 13.1451 8.98384C13.1114 8.90263 13.0621 8.82883 12.9999 8.76668C12.9378 8.70452 12.864 8.65521 12.7828 8.62157C12.7016 8.58793 12.6145 8.57061 12.5266 8.57061C12.4387 8.57061 12.3517 8.58793 12.2704 8.62157C12.1892 8.65521 12.1154 8.70452 12.0533 8.76668V8.78001Z" fill="#212121"/>
</g>
<defs>
<clipPath id="clip0_2909_4765">
<rect width="16" height="16" fill="white" transform="translate(0 0.5)"/>
</clipPath>
</defs>
</svg>
