<svg width="16" height="17" viewBox="0 0 16 17" fill="none" xmlns="http://www.w3.org/2000/svg">
<g clip-path="url(#clip0_2909_4768)">
<path fill-rule="evenodd" clip-rule="evenodd" d="M8 1.5C4.13401 1.5 1 4.63401 1 8.5C1 12.366 4.13401 15.5 8 15.5C11.866 15.5 15 12.366 15 8.5C15 4.63401 11.866 1.5 8 1.5ZM4.49995 8.1279C4.22381 8.1279 3.99995 8.35176 3.99995 8.6279C3.99996 8.90405 4.22381 9.1279 4.49996 9.1279L7.92776 9.12789C8.2039 9.12789 8.42776 8.90403 8.42776 8.62789L8.42774 4C8.42774 3.72386 8.20388 3.5 7.92774 3.5C7.6516 3.5 7.42774 3.72386 7.42774 4L7.42775 8.12789L4.49995 8.1279Z" fill="#0164FF"/>
</g>
<defs>
<clipPath id="clip0_2909_4768">
<rect width="16" height="16" fill="white" transform="translate(0 0.5)"/>
</clipPath>
</defs>
</svg>
