<svg xmlns="http://www.w3.org/2000/svg" width="73" height="20" fill="none"><g clip-path="url(#A)" fill="#212121"><path d="M11.747 5.938v4.825H5.809V5.938L.778 10.763v9.237h10.969l5.031-4.824V5.938h-5.031z"/><path d="M11.747 0H5.809v5.938h5.938V0zm22.326 1.441H31.67V18.56h2.403v-7.606h1.913v7.606h2.442V1.441h-2.442v7.48h-1.913v-7.48zm-8.685 1.181h-2.425v11.803h6.256l1.068-2.141V2.622h-2.4v3.9h-2.501l.003-3.9zm2.501 5.855v3.933h-2.501V8.476h2.501zm16.784-.914c.951.27 2.086.406 3.373.406 1.274 0 2.402-.136 3.353-.406s1.686-.656 2.198-1.152c.244-.223.438-.495.57-.798a2.37 2.37 0 0 0 .197-.961c0-.678-.258-1.272-.767-1.769s-1.256-.893-2.198-1.161-2.079-.407-3.353-.407c-1.288 0-2.425.137-3.373.407s-1.685.659-2.198 1.161-.767 1.091-.767 1.769a2.37 2.37 0 0 0 .767 1.759c.515.496 1.256.884 2.198 1.152zm3.373-4.312c2.453 0 3.645.459 3.645 1.401 0 .956-1.192 1.422-3.645 1.422-2.465 0-3.664-.465-3.664-1.422.003-.943 1.2-1.401 3.667-1.401h-.003zm-1.287 9.219h-4.775v5.912h11.141l1.068-2.141V12.47h-4.875v-1.516h6.61v-2.03H40.125v2.033h6.631l.003 1.514zm4.891 1.994v1.907h-7.148v-1.907h7.148zm15.649-5.928h2.468l1.009-2.023.28-5.078H58.834v2.013h9.653v.076l-.02.999v.071h-9.634v1.857h9.549l-1.085 2.085zm-2.096-.981h-2.578v1.853H57.08v1.993h15.723V9.409h-7.599V7.555zM66.96 18.52l1.372-2.339v-1.464h-9.653v-2.013H70.93v3.435l-1.396 2.381H66.96z"/></g><defs><clipPath id="A"><path fill="#fff" transform="translate(.778)" d="M0 0h72.222v20H0z"/></clipPath></defs></svg>